<svg width="200" height="60" viewBox="0 0 200 60" fill="none" xmlns="http://www.w3.org/2000/svg">
  <path d="M22.62 15.52C28.33 15.52 32.47 19.33 32.47 25.37C32.47 31.47 28.28 35.28 22.62 35.28H14.62V44.48H8.52V15.52H22.62ZM22.27 30.08C24.97 30.08 26.42 28.28 26.42 25.42C26.42 22.62 24.97 20.72 22.27 20.72H14.62V30.08H22.27Z" fill="#8E24AA"/>
  <path d="M46.1533 29.04C46.1533 25.44 43.8733 22.92 40.4333 22.92C37.0333 22.92 34.7533 25.44 34.7533 29.04C34.7533 32.64 37.0333 35.16 40.4333 35.16C43.8733 35.16 46.1533 32.64 46.1533 29.04ZM28.6533 29.04C28.6533 22.68 33.6733 17.52 40.4333 17.52C47.1933 17.52 52.2533 22.68 52.2533 29.04C52.2533 35.4 47.1933 40.56 40.4333 40.56C33.6733 40.56 28.6533 35.4 28.6533 29.04Z" fill="#8E24AA"/>
  <path d="M63.7665 32.52C63.7665 36.72 66.2065 39.24 69.7065 39.24C73.1865 39.24 75.6265 36.72 75.6265 32.52V18H81.7665V32.52C81.7665 40.32 77.1665 44.88 69.7065 44.88C62.2865 44.88 57.6265 40.32 57.6265 32.52V18H63.7665V32.52Z" fill="#8E24AA"/>
  <path d="M85.6797 18H91.7797V28.44L101.36 18H108.88L98.1597 29.16L109.64 44.48H102.12L93.9597 33.36L91.7797 35.64V44.48H85.6797V18Z" fill="#FF5252"/>
  <path d="M115.693 18H121.793V44.48H115.693V18Z" fill="#FF5252"/>
  <path d="M124.406 18H130.506V39.24H143.446V44.48H124.406V18Z" fill="#FF5252"/>
  <path d="M149.159 23.28H139.999V18H164.519V23.28H155.359V44.48H149.159V23.28Z" fill="#FF5252"/>
  <path d="M166.372 18H172.472V44.48H166.372V18Z" fill="#FF5252"/>
  <path d="M175.085 18H181.185V28.44L190.765 18H198.285L187.565 29.16L199.045 44.48H191.525L183.365 33.36L181.185 35.64V44.48H175.085V18Z" fill="#FF5252"/>
  <!-- Check mark icon -->
  <circle cx="40.5" cy="29.5" r="9.5" fill="#4CAF50"/>
  <path d="M36.5 29.5L39.5 32.5L44.5 27.5" stroke="white" stroke-width="2" stroke-linecap="round" stroke-linejoin="round"/>
</svg> 